<svg viewBox="0 0 715.412 283.951" overflow="visible" height="50" width="80"><path d="M620.923 0c-52.181 0-94.487 42.303-94.487 94.492 0 52.181 42.307 94.479 94.487 94.479 52.186 0 94.492-42.299 94.488-94.479C715.412 42.307 673.105 0 620.923 0zm0 144.441c-27.589 0-49.953-22.368-49.953-49.958-.004-27.589 22.364-49.954 49.953-49.954 27.59 0 49.958 22.368 49.958 49.958s-22.368 49.954-49.958 49.954zM240.782 143.475c0 66.491-53.9 120.389-120.392 120.389C53.902 263.864.005 209.967.005 143.475c0-66.484 53.897-120.381 120.385-120.381 66.492-.001 120.392 53.897 120.392 120.381z" fill="#227B82"/><path d="M125.366 180.645l.133.781c1.225 7.228 6.907 10.991 15.64 10.27l10.273-1.302 83.677-10.2c5.108-16.092 6.978-33.536 4.788-51.368C231.8 62.975 171.959 16.067 106.185 23.947l17.819 145.787 1.362 10.911z" fill="#EFB31D"/><path d="M133.448 249.658c-40.131 1.623-58.809-14.983-63.984-56.928L51.312 44.877C16.1 69.562-4.711 112.477.912 158.163c8.072 65.96 68.176 112.88 134.142 104.807 19.459-2.386 37.287-9.291 52.478-19.564l-44.521 5.479c-2.913.326-6.209.773-9.563.773" fill="#BFD042"/><path d="M577.284 221.444l-.496-2.337-13.921-108.091c-1.44-50.926-43.171-91.767-94.446-91.767-52.181 0-94.488 42.303-94.488 94.488 0 52.186 42.308 94.484 94.488 94.484 21.355 0 41.053-7.087 56.877-19.032l-.002.004 2.961 23.972 1.076 8.924.068.612c.436 5.967-3.283 10.076-10.398 11.2l-8.299 1.056-68.14 8.376c11.583 18.75 29.329 33.068 49.989 40.618l43.975-5.705c32.069-6.647 47.129-21.489 40.756-56.802zM468.36 163.175c-27.593 0-49.957-22.368-49.957-49.957s22.368-49.953 49.957-49.953c27.59-.004 49.958 22.364 49.954 49.953 0 27.589-22.364 49.957-49.954 49.957z" fill="#227B82"/><g><path d="M315.477 38.942c-52.184 0-94.488 42.307-94.488 94.492 0 52.182 42.304 94.484 94.488 94.488 52.183-.004 94.49-42.307 94.49-94.488-.001-52.185-42.307-94.492-94.49-94.492zm-.482 143.064c-27.589 0-49.956-22.368-49.956-49.957 0-27.59 22.368-49.954 49.956-49.954 27.589 0 49.954 22.364 49.954 49.954 0 27.589-22.365 49.957-49.954 49.957z" fill="#227B82"/></g></svg>