<svg xmlns="http://www.w3.org/2000/svg" height="26" fill="none" width="25"><path d="M18.677 3.6c-.818 0-1.636.318-2.27.953L4.052 16.906l-.05.244-.854 4.297-.244 1.148 1.148-.244 4.297-.855.244-.049L20.947 9.094a3.183 3.183 0 000-4.541 3.201 3.201 0 00-2.27-.952zm0 1.49c.393 0 .79.18 1.172.561.76.76.76 1.584 0 2.344l-.562.537-2.32-2.32.538-.56c.381-.382.778-.562 1.172-.562zm-2.808 2.222l2.32 2.319-9.449 9.448a5.323 5.323 0 00-2.32-2.32l9.45-9.447zM5.42 18.029a3.698 3.698 0 012.052 2.051l-2.564.513.513-2.564z" fill="#000"/></svg>