<svg xmlns="http://www.w3.org/2000/svg" height="26" fill="none" width="26"><path d="M11.438 3.625c-.41 0-.828.143-1.123.44-.297.295-.44.714-.44 1.122v.782H4.406V7.53h.855L6.75 21.667l.073.708h12.354l.073-.708 1.49-14.136h.854V5.97h-5.469v-.782c0-.408-.143-.827-.44-1.123-.296-.296-.714-.439-1.123-.439h-3.124zm0 1.563h3.124v.78h-3.124v-.78zM6.848 7.53h12.304l-1.391 13.282H8.239L6.848 7.53zm3.027 2.344v8.594h1.563V9.875H9.874zm2.344 0v8.594h1.562V9.875H12.22zm2.344 0v8.594h1.562V9.875h-1.563z" fill="#000"/></svg>